<mxfile host="app.diagrams.net" agent="Mozilla/5.0 (Windows NT 10.0; Win64; x64) AppleWebKit/537.36 (KHTML, like Gecko) Chrome/131.0.0.0 Safari/537.36" version="24.9.2" pages="2">
  <diagram name="Задание №1" id="5ol2MqTxDeJNeSs7hdZ8">
    <mxGraphModel dx="1000" dy="1707" grid="1" gridSize="10" guides="1" tooltips="1" connect="1" arrows="1" fold="1" page="1" pageScale="1" pageWidth="827" pageHeight="1169" math="0" shadow="0">
      <root>
        <mxCell id="0" />
        <mxCell id="1" parent="0" />
        <mxCell id="g608AtJc6dLGc5dA0U59-1" style="edgeStyle=orthogonalEdgeStyle;rounded=0;orthogonalLoop=1;jettySize=auto;html=1;exitX=1;exitY=0.3333333333333333;exitDx=0;exitDy=0;exitPerimeter=0;entryX=0;entryY=0.5;entryDx=0;entryDy=0;curved=1;" edge="1" parent="1" source="g608AtJc6dLGc5dA0U59-4" target="g608AtJc6dLGc5dA0U59-19">
          <mxGeometry relative="1" as="geometry" />
        </mxCell>
        <mxCell id="g608AtJc6dLGc5dA0U59-2" style="edgeStyle=orthogonalEdgeStyle;rounded=0;orthogonalLoop=1;jettySize=auto;html=1;entryX=0;entryY=0.5;entryDx=0;entryDy=0;curved=1;" edge="1" parent="1" target="g608AtJc6dLGc5dA0U59-20">
          <mxGeometry relative="1" as="geometry">
            <mxPoint x="180" y="620" as="sourcePoint" />
          </mxGeometry>
        </mxCell>
        <mxCell id="g608AtJc6dLGc5dA0U59-3" style="edgeStyle=orthogonalEdgeStyle;rounded=0;orthogonalLoop=1;jettySize=auto;html=1;entryX=0;entryY=0.5;entryDx=0;entryDy=0;curved=1;exitX=1;exitY=0.3333333333333333;exitDx=0;exitDy=0;exitPerimeter=0;" edge="1" parent="1" source="g608AtJc6dLGc5dA0U59-4" target="g608AtJc6dLGc5dA0U59-21">
          <mxGeometry relative="1" as="geometry" />
        </mxCell>
        <mxCell id="g608AtJc6dLGc5dA0U59-4" value="Admin" style="shape=umlActor;verticalLabelPosition=bottom;verticalAlign=top;html=1;outlineConnect=0;" vertex="1" parent="1">
          <mxGeometry x="150" y="600" width="30" height="60" as="geometry" />
        </mxCell>
        <mxCell id="g608AtJc6dLGc5dA0U59-47" style="edgeStyle=orthogonalEdgeStyle;rounded=0;orthogonalLoop=1;jettySize=auto;html=1;entryX=0;entryY=0.5;entryDx=0;entryDy=0;curved=1;" edge="1" parent="1" source="g608AtJc6dLGc5dA0U59-8" target="g608AtJc6dLGc5dA0U59-14">
          <mxGeometry relative="1" as="geometry" />
        </mxCell>
        <mxCell id="g608AtJc6dLGc5dA0U59-8" value="&lt;span style=&quot;white-space: pre-wrap;&quot; data-src-align=&quot;3:12&quot; class=&quot;EzKURWReUAB5oZgtQNkl&quot;&gt;Librarian&lt;/span&gt;" style="shape=umlActor;verticalLabelPosition=bottom;verticalAlign=top;html=1;outlineConnect=0;" vertex="1" parent="1">
          <mxGeometry x="160" y="310" width="30" height="60" as="geometry" />
        </mxCell>
        <mxCell id="g608AtJc6dLGc5dA0U59-9" style="edgeStyle=orthogonalEdgeStyle;rounded=0;orthogonalLoop=1;jettySize=auto;html=1;exitX=1;exitY=0.3333333333333333;exitDx=0;exitDy=0;exitPerimeter=0;entryX=0;entryY=0.5;entryDx=0;entryDy=0;curved=1;" edge="1" parent="1" source="g608AtJc6dLGc5dA0U59-10" target="g608AtJc6dLGc5dA0U59-12">
          <mxGeometry relative="1" as="geometry" />
        </mxCell>
        <mxCell id="g608AtJc6dLGc5dA0U59-39" style="edgeStyle=orthogonalEdgeStyle;rounded=0;orthogonalLoop=1;jettySize=auto;html=1;entryX=0;entryY=0.5;entryDx=0;entryDy=0;curved=1;" edge="1" parent="1" target="g608AtJc6dLGc5dA0U59-37">
          <mxGeometry relative="1" as="geometry">
            <mxPoint x="200" y="30" as="sourcePoint" />
          </mxGeometry>
        </mxCell>
        <mxCell id="g608AtJc6dLGc5dA0U59-10" value="&lt;span style=&quot;white-space: pre-wrap;&quot; data-src-align=&quot;3:8&quot; class=&quot;EzKURWReUAB5oZgtQNkl&quot;&gt;Reader&lt;/span&gt;" style="shape=umlActor;verticalLabelPosition=bottom;verticalAlign=top;html=1;outlineConnect=0;" vertex="1" parent="1">
          <mxGeometry x="160" y="10" width="30" height="60" as="geometry" />
        </mxCell>
        <mxCell id="g608AtJc6dLGc5dA0U59-11" value="&lt;span style=&quot;line-height: 107%; font-family: &amp;quot;Times New Roman&amp;quot;, serif;&quot; lang=&quot;EN-US&quot;&gt;&lt;font&gt;Просмотр доступных книг&lt;/font&gt;&lt;/span&gt;" style="ellipse;whiteSpace=wrap;html=1;" vertex="1" parent="1">
          <mxGeometry x="350" y="-100" width="140" height="70" as="geometry" />
        </mxCell>
        <mxCell id="g608AtJc6dLGc5dA0U59-12" value="&lt;span style=&quot;line-height: 107%; font-family: &amp;quot;Times New Roman&amp;quot;, serif;&quot; lang=&quot;EN-US&quot;&gt;&lt;font&gt;Регистрация в системе&lt;/font&gt;&lt;/span&gt;" style="ellipse;whiteSpace=wrap;html=1;" vertex="1" parent="1">
          <mxGeometry x="300" y="-220" width="140" height="70" as="geometry" />
        </mxCell>
        <mxCell id="g608AtJc6dLGc5dA0U59-14" value="&lt;span style=&quot;line-height: 107%; font-family: &amp;quot;Times New Roman&amp;quot;, serif;&quot; lang=&quot;EN-US&quot;&gt;&lt;font&gt;Управление каталогом&lt;/font&gt;&lt;/span&gt;" style="ellipse;whiteSpace=wrap;html=1;" vertex="1" parent="1">
          <mxGeometry x="350" y="260" width="140" height="70" as="geometry" />
        </mxCell>
        <mxCell id="g608AtJc6dLGc5dA0U59-50" style="edgeStyle=orthogonalEdgeStyle;rounded=0;orthogonalLoop=1;jettySize=auto;html=1;curved=1;entryX=1;entryY=0.5;entryDx=0;entryDy=0;dashed=1;dashPattern=8 8;" edge="1" parent="1" source="g608AtJc6dLGc5dA0U59-16" target="g608AtJc6dLGc5dA0U59-14">
          <mxGeometry relative="1" as="geometry">
            <mxPoint x="560" y="410" as="targetPoint" />
            <Array as="points">
              <mxPoint x="610" y="425" />
              <mxPoint x="610" y="300" />
              <mxPoint x="490" y="300" />
            </Array>
          </mxGeometry>
        </mxCell>
        <mxCell id="g608AtJc6dLGc5dA0U59-51" value="extend" style="edgeLabel;html=1;align=center;verticalAlign=middle;resizable=0;points=[];" vertex="1" connectable="0" parent="g608AtJc6dLGc5dA0U59-50">
          <mxGeometry x="-0.1801" y="-7" relative="1" as="geometry">
            <mxPoint as="offset" />
          </mxGeometry>
        </mxCell>
        <mxCell id="g608AtJc6dLGc5dA0U59-16" value="&lt;span style=&quot;line-height: 107%; font-family: &amp;quot;Times New Roman&amp;quot;, serif;&quot; lang=&quot;EN-US&quot;&gt;&lt;font&gt;Просмотр списка активных бронирований&lt;/font&gt;&lt;/span&gt;" style="ellipse;whiteSpace=wrap;html=1;" vertex="1" parent="1">
          <mxGeometry x="720" y="400" width="140" height="70" as="geometry" />
        </mxCell>
        <mxCell id="g608AtJc6dLGc5dA0U59-49" style="edgeStyle=orthogonalEdgeStyle;rounded=0;orthogonalLoop=1;jettySize=auto;html=1;entryX=1;entryY=0.5;entryDx=0;entryDy=0;curved=1;dashed=1;dashPattern=8 8;" edge="1" parent="1" source="g608AtJc6dLGc5dA0U59-17" target="g608AtJc6dLGc5dA0U59-14">
          <mxGeometry relative="1" as="geometry" />
        </mxCell>
        <mxCell id="g608AtJc6dLGc5dA0U59-52" value="extend" style="edgeLabel;html=1;align=center;verticalAlign=middle;resizable=0;points=[];" vertex="1" connectable="0" parent="g608AtJc6dLGc5dA0U59-49">
          <mxGeometry x="-0.4595" relative="1" as="geometry">
            <mxPoint x="-1" as="offset" />
          </mxGeometry>
        </mxCell>
        <mxCell id="g608AtJc6dLGc5dA0U59-17" value="&lt;span style=&quot;line-height: 107%; font-family: &amp;quot;Times New Roman&amp;quot;, serif;&quot;&gt;&lt;font&gt;Учет выданных и возвращенных книг&lt;/font&gt;&lt;/span&gt;" style="ellipse;whiteSpace=wrap;html=1;" vertex="1" parent="1">
          <mxGeometry x="810" y="260" width="140" height="70" as="geometry" />
        </mxCell>
        <mxCell id="g608AtJc6dLGc5dA0U59-48" style="edgeStyle=orthogonalEdgeStyle;rounded=0;orthogonalLoop=1;jettySize=auto;html=1;entryX=1;entryY=0.5;entryDx=0;entryDy=0;curved=1;dashed=1;dashPattern=8 8;" edge="1" parent="1" source="g608AtJc6dLGc5dA0U59-18" target="g608AtJc6dLGc5dA0U59-14">
          <mxGeometry relative="1" as="geometry" />
        </mxCell>
        <mxCell id="g608AtJc6dLGc5dA0U59-53" value="&lt;span style=&quot;font-family: -apple-system, BlinkMacSystemFont, Arial, sans-serif; text-align: start; text-wrap-mode: wrap; background-color: rgb(247, 247, 247);&quot;&gt;&lt;font style=&quot;&quot;&gt;include&lt;/font&gt;&lt;/span&gt;" style="edgeLabel;html=1;align=center;verticalAlign=middle;resizable=0;points=[];" vertex="1" connectable="0" parent="g608AtJc6dLGc5dA0U59-48">
          <mxGeometry x="-0.5962" y="6" relative="1" as="geometry">
            <mxPoint x="-1" as="offset" />
          </mxGeometry>
        </mxCell>
        <mxCell id="g608AtJc6dLGc5dA0U59-18" value="&lt;span style=&quot;line-height: 107%; font-family: &amp;quot;Times New Roman&amp;quot;, serif;&quot; lang=&quot;EN-US&quot;&gt;&lt;font style=&quot;font-size: 13px;&quot;&gt;Добавление и удаление книг&lt;/font&gt;&lt;/span&gt;" style="ellipse;whiteSpace=wrap;html=1;" vertex="1" parent="1">
          <mxGeometry x="690" y="160" width="140" height="70" as="geometry" />
        </mxCell>
        <mxCell id="g608AtJc6dLGc5dA0U59-19" value="&lt;span style=&quot;line-height: 107%; font-family: &amp;quot;Times New Roman&amp;quot;, serif;&quot;&gt;&lt;font&gt;Управление филиалами библиотеки (добавление/удаление филиалов)&lt;/font&gt;&lt;/span&gt;" style="ellipse;whiteSpace=wrap;html=1;" vertex="1" parent="1">
          <mxGeometry x="490" y="550" width="140" height="70" as="geometry" />
        </mxCell>
        <mxCell id="g608AtJc6dLGc5dA0U59-20" value="&lt;span style=&quot;line-height: 107%; font-family: &amp;quot;Times New Roman&amp;quot;, serif;&quot;&gt;&lt;font&gt;Управление учетными записями пользователей и библиотекарей&lt;/font&gt;&lt;/span&gt;" style="ellipse;whiteSpace=wrap;html=1;" vertex="1" parent="1">
          <mxGeometry x="560" y="650" width="140" height="70" as="geometry" />
        </mxCell>
        <mxCell id="g608AtJc6dLGc5dA0U59-21" value="&lt;span style=&quot;line-height: 107%; font-family: &amp;quot;Times New Roman&amp;quot;, serif;&quot;&gt;&lt;font style=&quot;font-size: 11px;&quot;&gt;Просмотр аналитики (количество выданных книг, самые популярные книги и&lt;br&gt;т. д.)&lt;/font&gt;&lt;/span&gt;" style="ellipse;whiteSpace=wrap;html=1;" vertex="1" parent="1">
          <mxGeometry x="420" y="750" width="140" height="70" as="geometry" />
        </mxCell>
        <mxCell id="g608AtJc6dLGc5dA0U59-41" style="edgeStyle=orthogonalEdgeStyle;rounded=0;orthogonalLoop=1;jettySize=auto;html=1;curved=1;entryX=1;entryY=0.5;entryDx=0;entryDy=0;dashed=1;dashPattern=8 8;" edge="1" parent="1" source="g608AtJc6dLGc5dA0U59-22" target="g608AtJc6dLGc5dA0U59-37">
          <mxGeometry relative="1" as="geometry">
            <mxPoint x="560" y="-60" as="targetPoint" />
          </mxGeometry>
        </mxCell>
        <mxCell id="g608AtJc6dLGc5dA0U59-22" value="&lt;span style=&quot;line-height: 107%; font-family: &amp;quot;Times New Roman&amp;quot;, serif;&quot; lang=&quot;EN-US&quot;&gt;&lt;font&gt;Отмена бронирования&lt;/font&gt;&lt;/span&gt;" style="ellipse;whiteSpace=wrap;html=1;" vertex="1" parent="1">
          <mxGeometry x="720" y="-10" width="140" height="70" as="geometry" />
        </mxCell>
        <mxCell id="g608AtJc6dLGc5dA0U59-40" style="edgeStyle=orthogonalEdgeStyle;rounded=0;orthogonalLoop=1;jettySize=auto;html=1;entryX=1;entryY=0.5;entryDx=0;entryDy=0;curved=1;dashed=1;dashPattern=8 8;" edge="1" parent="1" source="g608AtJc6dLGc5dA0U59-24" target="g608AtJc6dLGc5dA0U59-11">
          <mxGeometry relative="1" as="geometry" />
        </mxCell>
        <mxCell id="g608AtJc6dLGc5dA0U59-24" value="&lt;span style=&quot;line-height: 107%; font-family: &amp;quot;Times New Roman&amp;quot;, serif;&quot; lang=&quot;EN-US&quot;&gt;&lt;font&gt;Бронирование книги&lt;/font&gt;&lt;/span&gt;" style="ellipse;whiteSpace=wrap;html=1;" vertex="1" parent="1">
          <mxGeometry x="650" y="-250" width="140" height="70" as="geometry" />
        </mxCell>
        <mxCell id="g608AtJc6dLGc5dA0U59-25" style="edgeStyle=orthogonalEdgeStyle;rounded=0;orthogonalLoop=1;jettySize=auto;html=1;entryX=1;entryY=0.5;entryDx=0;entryDy=0;dashed=1;dashPattern=8 8;curved=1;" edge="1" parent="1" source="g608AtJc6dLGc5dA0U59-26" target="g608AtJc6dLGc5dA0U59-11">
          <mxGeometry relative="1" as="geometry" />
        </mxCell>
        <mxCell id="g608AtJc6dLGc5dA0U59-38" value="extend" style="edgeLabel;html=1;align=center;verticalAlign=middle;resizable=0;points=[];" vertex="1" connectable="0" parent="g608AtJc6dLGc5dA0U59-25">
          <mxGeometry x="0.0286" y="2" relative="1" as="geometry">
            <mxPoint as="offset" />
          </mxGeometry>
        </mxCell>
        <mxCell id="g608AtJc6dLGc5dA0U59-26" value="&lt;span style=&quot;line-height: 107%; font-family: &amp;quot;Times New Roman&amp;quot;, serif;&quot;&gt;&lt;font&gt;Поиск книг по автору, названию, жанру&lt;/font&gt;&lt;/span&gt;" style="ellipse;whiteSpace=wrap;html=1;" vertex="1" parent="1">
          <mxGeometry x="680" y="-130" width="140" height="70" as="geometry" />
        </mxCell>
        <mxCell id="g608AtJc6dLGc5dA0U59-30" style="edgeStyle=orthogonalEdgeStyle;rounded=0;orthogonalLoop=1;jettySize=auto;html=1;entryX=0;entryY=0.5;entryDx=0;entryDy=0;curved=1;" edge="1" parent="1" target="g608AtJc6dLGc5dA0U59-11">
          <mxGeometry relative="1" as="geometry">
            <mxPoint x="190" y="30" as="sourcePoint" />
          </mxGeometry>
        </mxCell>
        <mxCell id="g608AtJc6dLGc5dA0U59-35" style="edgeStyle=orthogonalEdgeStyle;rounded=0;orthogonalLoop=1;jettySize=auto;html=1;entryX=0;entryY=0.3333333333333333;entryDx=0;entryDy=0;entryPerimeter=0;endArrow=block;endFill=0;" edge="1" parent="1" source="g608AtJc6dLGc5dA0U59-4" target="g608AtJc6dLGc5dA0U59-10">
          <mxGeometry relative="1" as="geometry">
            <Array as="points">
              <mxPoint x="30" y="630" />
              <mxPoint x="30" y="30" />
            </Array>
          </mxGeometry>
        </mxCell>
        <mxCell id="g608AtJc6dLGc5dA0U59-36" style="edgeStyle=orthogonalEdgeStyle;rounded=0;orthogonalLoop=1;jettySize=auto;html=1;entryX=0.5;entryY=1.333;entryDx=0;entryDy=0;entryPerimeter=0;curved=1;endArrow=block;endFill=0;" edge="1" parent="1" source="g608AtJc6dLGc5dA0U59-8" target="g608AtJc6dLGc5dA0U59-10">
          <mxGeometry relative="1" as="geometry" />
        </mxCell>
        <mxCell id="g608AtJc6dLGc5dA0U59-37" value="&lt;span style=&quot;line-height: 107%; font-family: &amp;quot;Times New Roman&amp;quot;, serif;&quot; lang=&quot;EN-US&quot;&gt;&lt;font&gt;Просмотр истории бронирований&lt;/font&gt;&lt;/span&gt;" style="ellipse;whiteSpace=wrap;html=1;" vertex="1" parent="1">
          <mxGeometry x="360" y="40" width="140" height="70" as="geometry" />
        </mxCell>
        <mxCell id="g608AtJc6dLGc5dA0U59-45" value="extend" style="edgeLabel;html=1;align=center;verticalAlign=middle;resizable=0;points=[];" vertex="1" connectable="0" parent="1">
          <mxGeometry x="580" y="130.004285714286" as="geometry">
            <mxPoint x="40" y="-93" as="offset" />
          </mxGeometry>
        </mxCell>
        <mxCell id="g608AtJc6dLGc5dA0U59-46" value="extend" style="edgeLabel;html=1;align=center;verticalAlign=middle;resizable=0;points=[];" vertex="1" connectable="0" parent="1">
          <mxGeometry x="560" y="-29.995714285713994" as="geometry">
            <mxPoint x="33" y="-170" as="offset" />
          </mxGeometry>
        </mxCell>
      </root>
    </mxGraphModel>
  </diagram>
  <diagram id="0wjmy4uIbPGh75gw5hzp" name="Задание №2">
    <mxGraphModel dx="1877" dy="565" grid="1" gridSize="10" guides="1" tooltips="1" connect="1" arrows="1" fold="1" page="1" pageScale="1" pageWidth="827" pageHeight="1169" math="0" shadow="0">
      <root>
        <mxCell id="0" />
        <mxCell id="1" parent="0" />
        <mxCell id="lOZS0jXv6Nf-IuBymX3j-24" style="edgeStyle=orthogonalEdgeStyle;rounded=0;orthogonalLoop=1;jettySize=auto;html=1;exitX=0.5;exitY=1;exitDx=0;exitDy=0;entryX=0.5;entryY=0;entryDx=0;entryDy=0;" edge="1" parent="1" source="lOZS0jXv6Nf-IuBymX3j-26" target="lOZS0jXv6Nf-IuBymX3j-29">
          <mxGeometry relative="1" as="geometry">
            <Array as="points">
              <mxPoint x="-430" y="150" />
              <mxPoint x="-430" y="150" />
            </Array>
          </mxGeometry>
        </mxCell>
        <mxCell id="lOZS0jXv6Nf-IuBymX3j-25" value="&lt;span style=&quot;line-height: 107%; font-family: &amp;quot;Times New Roman&amp;quot;, serif;&quot;&gt;&lt;font style=&quot;font-size: 12px;&quot;&gt;Автомат ожидает действия пользователя.&lt;/font&gt;&lt;/span&gt;" style="edgeLabel;html=1;align=center;verticalAlign=middle;resizable=0;points=[];" vertex="1" connectable="0" parent="lOZS0jXv6Nf-IuBymX3j-24">
          <mxGeometry x="-0.1259" relative="1" as="geometry">
            <mxPoint as="offset" />
          </mxGeometry>
        </mxCell>
        <mxCell id="lOZS0jXv6Nf-IuBymX3j-26" value="" style="shape=ellipse;html=1;fillColor=strokeColor;fontSize=18;fontColor=#ffffff;" vertex="1" parent="1">
          <mxGeometry x="-450" y="90" width="40" height="40" as="geometry" />
        </mxCell>
        <mxCell id="lOZS0jXv6Nf-IuBymX3j-27" style="edgeStyle=orthogonalEdgeStyle;rounded=0;orthogonalLoop=1;jettySize=auto;html=1;exitX=0.5;exitY=1;exitDx=0;exitDy=0;" edge="1" parent="1" source="lOZS0jXv6Nf-IuBymX3j-29">
          <mxGeometry relative="1" as="geometry">
            <mxPoint x="-430" y="280" as="targetPoint" />
          </mxGeometry>
        </mxCell>
        <mxCell id="lOZS0jXv6Nf-IuBymX3j-28" value="&lt;span style=&quot;line-height: 107%; font-family: &amp;quot;Times New Roman&amp;quot;, serif;&quot;&gt;&lt;font&gt;пользователь выбрал билет, но не оплатил&lt;br&gt;&lt;/font&gt;&lt;/span&gt;" style="edgeLabel;html=1;align=center;verticalAlign=middle;resizable=0;points=[];" vertex="1" connectable="0" parent="lOZS0jXv6Nf-IuBymX3j-27">
          <mxGeometry x="-0.2118" relative="1" as="geometry">
            <mxPoint as="offset" />
          </mxGeometry>
        </mxCell>
        <mxCell id="lOZS0jXv6Nf-IuBymX3j-29" value="&lt;span style=&quot;line-height: 107%; font-family: &amp;quot;Times New Roman&amp;quot;, serif;&quot; lang=&quot;EN-US&quot;&gt;&lt;font style=&quot;font-size: 15px;&quot;&gt;Idle&lt;/font&gt;&lt;/span&gt;" style="shape=rect;rounded=1;html=1;whiteSpace=wrap;align=center;" vertex="1" parent="1">
          <mxGeometry x="-480" y="170" width="100" height="40" as="geometry" />
        </mxCell>
        <mxCell id="lOZS0jXv6Nf-IuBymX3j-30" style="edgeStyle=orthogonalEdgeStyle;rounded=0;orthogonalLoop=1;jettySize=auto;html=1;exitX=0.5;exitY=1;exitDx=0;exitDy=0;entryX=0.5;entryY=0;entryDx=0;entryDy=0;" edge="1" parent="1" source="lOZS0jXv6Nf-IuBymX3j-33" target="lOZS0jXv6Nf-IuBymX3j-39">
          <mxGeometry relative="1" as="geometry" />
        </mxCell>
        <mxCell id="lOZS0jXv6Nf-IuBymX3j-31" value="&lt;font face=&quot;Times New Roman, serif&quot;&gt;пользователь&amp;nbsp; оплатил билет&lt;/font&gt;" style="edgeLabel;html=1;align=center;verticalAlign=middle;resizable=0;points=[];" vertex="1" connectable="0" parent="lOZS0jXv6Nf-IuBymX3j-30">
          <mxGeometry x="-0.171" relative="1" as="geometry">
            <mxPoint as="offset" />
          </mxGeometry>
        </mxCell>
        <mxCell id="lOZS0jXv6Nf-IuBymX3j-32" style="edgeStyle=orthogonalEdgeStyle;rounded=0;orthogonalLoop=1;jettySize=auto;html=1;entryX=0.5;entryY=0;entryDx=0;entryDy=0;" edge="1" parent="1" source="lOZS0jXv6Nf-IuBymX3j-33" target="lOZS0jXv6Nf-IuBymX3j-44">
          <mxGeometry relative="1" as="geometry" />
        </mxCell>
        <mxCell id="lOZS0jXv6Nf-IuBymX3j-33" value="&lt;span style=&quot;line-height: 107%; font-family: &amp;quot;Times New Roman&amp;quot;, serif;&quot; lang=&quot;EN-US&quot;&gt;&lt;font style=&quot;font-size: 13px;&quot;&gt;WaitingForMoney&lt;/font&gt;&lt;/span&gt;" style="shape=rect;rounded=1;html=1;whiteSpace=wrap;align=center;" vertex="1" parent="1">
          <mxGeometry x="-480" y="280" width="100" height="40" as="geometry" />
        </mxCell>
        <mxCell id="lOZS0jXv6Nf-IuBymX3j-34" style="edgeStyle=orthogonalEdgeStyle;rounded=0;orthogonalLoop=1;jettySize=auto;html=1;exitX=0.5;exitY=1;exitDx=0;exitDy=0;" edge="1" parent="1" source="lOZS0jXv6Nf-IuBymX3j-52">
          <mxGeometry relative="1" as="geometry">
            <mxPoint x="-430" y="660" as="targetPoint" />
          </mxGeometry>
        </mxCell>
        <mxCell id="lOZS0jXv6Nf-IuBymX3j-35" style="edgeStyle=orthogonalEdgeStyle;rounded=0;orthogonalLoop=1;jettySize=auto;html=1;" edge="1" parent="1" source="lOZS0jXv6Nf-IuBymX3j-39" target="lOZS0jXv6Nf-IuBymX3j-44">
          <mxGeometry relative="1" as="geometry" />
        </mxCell>
        <mxCell id="lOZS0jXv6Nf-IuBymX3j-36" value="&lt;span style=&quot;line-height: 107%; font-family: &amp;quot;Times New Roman&amp;quot;, serif;&quot;&gt;&lt;font&gt;транзакция отменено&amp;nbsp;&lt;/font&gt;&lt;/span&gt;" style="edgeLabel;html=1;align=center;verticalAlign=middle;resizable=0;points=[];" vertex="1" connectable="0" parent="lOZS0jXv6Nf-IuBymX3j-35">
          <mxGeometry x="-0.0533" relative="1" as="geometry">
            <mxPoint as="offset" />
          </mxGeometry>
        </mxCell>
        <mxCell id="lOZS0jXv6Nf-IuBymX3j-39" value="&lt;span style=&quot;line-height: 107%; font-family: &amp;quot;Times New Roman&amp;quot;, serif;&quot; lang=&quot;EN-US&quot;&gt;&lt;font style=&quot;font-size: 14px;&quot;&gt;MoneyReceived&lt;/font&gt;&lt;/span&gt;" style="shape=rect;rounded=1;html=1;whiteSpace=wrap;align=center;" vertex="1" parent="1">
          <mxGeometry x="-480" y="390" width="100" height="40" as="geometry" />
        </mxCell>
        <mxCell id="lOZS0jXv6Nf-IuBymX3j-43" style="edgeStyle=orthogonalEdgeStyle;rounded=0;orthogonalLoop=1;jettySize=auto;html=1;entryX=0.5;entryY=0;entryDx=0;entryDy=0;entryPerimeter=0;" edge="1" parent="1" source="lOZS0jXv6Nf-IuBymX3j-44" target="lOZS0jXv6Nf-IuBymX3j-46">
          <mxGeometry relative="1" as="geometry">
            <mxPoint x="-160" y="520" as="targetPoint" />
          </mxGeometry>
        </mxCell>
        <mxCell id="lOZS0jXv6Nf-IuBymX3j-44" value="&lt;span style=&quot;line-height: 107%; font-family: &amp;quot;Times New Roman&amp;quot;, serif;&quot; lang=&quot;EN-US&quot;&gt;&lt;font style=&quot;font-size: 11px;&quot;&gt;TransactionCanceled&lt;/font&gt;&lt;/span&gt;" style="shape=rect;rounded=1;html=1;whiteSpace=wrap;align=center;" vertex="1" parent="1">
          <mxGeometry x="-210" y="390" width="100" height="40" as="geometry" />
        </mxCell>
        <mxCell id="lOZS0jXv6Nf-IuBymX3j-45" value="" style="shape=mxgraph.sysml.actFinal;html=1;verticalLabelPosition=bottom;labelBackgroundColor=#ffffff;verticalAlign=top;" vertex="1" parent="1">
          <mxGeometry x="-450" y="730" width="40" height="40" as="geometry" />
        </mxCell>
        <mxCell id="lOZS0jXv6Nf-IuBymX3j-46" value="" style="shape=mxgraph.sysml.actFinal;html=1;verticalLabelPosition=bottom;labelBackgroundColor=#ffffff;verticalAlign=top;" vertex="1" parent="1">
          <mxGeometry x="-180" y="500" width="40" height="40" as="geometry" />
        </mxCell>
        <mxCell id="lOZS0jXv6Nf-IuBymX3j-49" value="" style="edgeStyle=orthogonalEdgeStyle;rounded=0;orthogonalLoop=1;jettySize=auto;html=1;entryX=0.5;entryY=0;entryDx=0;entryDy=0;" edge="1" parent="1" target="lOZS0jXv6Nf-IuBymX3j-52">
          <mxGeometry relative="1" as="geometry">
            <mxPoint x="-430" y="530" as="sourcePoint" />
            <mxPoint x="-430" y="520" as="targetPoint" />
          </mxGeometry>
        </mxCell>
        <mxCell id="lOZS0jXv6Nf-IuBymX3j-50" value="&lt;span style=&quot;line-height: 107%; font-family: &amp;quot;Times New Roman&amp;quot;, serif;&quot;&gt;&lt;font&gt;билет был выдан пользователю&lt;/font&gt;&lt;/span&gt;&lt;span style=&quot;font-size:14.0pt;line-height:107%;&amp;lt;br/&amp;gt;font-family:&amp;quot;Times New Roman&amp;quot;,serif;mso-fareast-font-family:Calibri;mso-fareast-theme-font:&amp;lt;br/&amp;gt;minor-latin;mso-ansi-language:RU;mso-fareast-language:EN-US;mso-bidi-language:&amp;lt;br/&amp;gt;AR-SA;mso-bidi-font-style:italic&quot;&gt;&amp;nbsp;&lt;/span&gt;" style="edgeLabel;html=1;align=center;verticalAlign=middle;resizable=0;points=[];" vertex="1" connectable="0" parent="lOZS0jXv6Nf-IuBymX3j-49">
          <mxGeometry x="-0.1286" relative="1" as="geometry">
            <mxPoint as="offset" />
          </mxGeometry>
        </mxCell>
        <mxCell id="lOZS0jXv6Nf-IuBymX3j-52" value="&lt;span style=&quot;line-height: 107%; font-family: &amp;quot;Times New Roman&amp;quot;, serif;&quot; lang=&quot;EN-US&quot;&gt;&lt;font style=&quot;font-size: 14px;&quot;&gt;TicketDispensed&lt;/font&gt;&lt;/span&gt;" style="shape=rect;rounded=1;html=1;whiteSpace=wrap;align=center;" vertex="1" parent="1">
          <mxGeometry x="-480" y="620" width="100" height="40" as="geometry" />
        </mxCell>
        <mxCell id="lOZS0jXv6Nf-IuBymX3j-55" value="&lt;span style=&quot;line-height: 107%; font-family: &amp;quot;Times New Roman&amp;quot;, serif;&quot; lang=&quot;EN-US&quot;&gt;&lt;font&gt;транзакция отменено&lt;/font&gt;&lt;/span&gt;" style="edgeLabel;html=1;align=center;verticalAlign=middle;resizable=0;points=[];" vertex="1" connectable="0" parent="1">
          <mxGeometry x="-290" y="340" as="geometry">
            <mxPoint x="15" y="-43" as="offset" />
          </mxGeometry>
        </mxCell>
        <mxCell id="lOZS0jXv6Nf-IuBymX3j-58" style="edgeStyle=orthogonalEdgeStyle;rounded=0;orthogonalLoop=1;jettySize=auto;html=1;entryX=0.5;entryY=0;entryDx=0;entryDy=0;entryPerimeter=0;" edge="1" parent="1" source="lOZS0jXv6Nf-IuBymX3j-52" target="lOZS0jXv6Nf-IuBymX3j-45">
          <mxGeometry relative="1" as="geometry" />
        </mxCell>
        <mxCell id="CO4zW4RMsUm5iEO2pjYq-4" value="&lt;span style=&quot;line-height: 107%; font-family: &amp;quot;Times New Roman&amp;quot;, serif;&quot; lang=&quot;EN-US&quot;&gt;&lt;font style=&quot;font-size: 14px;&quot;&gt;MoneyReceived&lt;/font&gt;&lt;/span&gt;" style="shape=rect;rounded=1;html=1;whiteSpace=wrap;align=center;" vertex="1" parent="1">
          <mxGeometry x="-480" y="490" width="100" height="40" as="geometry" />
        </mxCell>
        <mxCell id="CO4zW4RMsUm5iEO2pjYq-5" style="edgeStyle=orthogonalEdgeStyle;rounded=0;orthogonalLoop=1;jettySize=auto;html=1;entryX=0.5;entryY=0;entryDx=0;entryDy=0;" edge="1" parent="1" source="lOZS0jXv6Nf-IuBymX3j-39" target="CO4zW4RMsUm5iEO2pjYq-4">
          <mxGeometry relative="1" as="geometry" />
        </mxCell>
        <mxCell id="CO4zW4RMsUm5iEO2pjYq-6" value="возврат сдачи" style="edgeLabel;html=1;align=center;verticalAlign=middle;resizable=0;points=[];" vertex="1" connectable="0" parent="CO4zW4RMsUm5iEO2pjYq-5">
          <mxGeometry x="-0.1867" relative="1" as="geometry">
            <mxPoint as="offset" />
          </mxGeometry>
        </mxCell>
      </root>
    </mxGraphModel>
  </diagram>
</mxfile>
